<svg xmlns="http://www.w3.org/2000/svg" xmlns:v="https://svgstorm.com"
viewBox = "0 0 1024 1024"
width="1024"
height="1024">
<g fill="None" fill-opacity="0.0" stroke="#FFFFFB" stroke-opacity="1.00" stroke-width="0.3"><path d="
M 0.00 1024.00 
L 1024.00 1024.00
L 1024.00 0.00
L 0.00 0.00
L 0.00 1024.00
M 517.00 74.00 
C 633.85 74.00 742.92 121.27 825.75 204.25 C 908.58 287.23 954.10 398.83 953.00 516.00 C 951.90 633.17 906.01 742.63 823.25 826.25 C 740.48 909.86 630.25 955.50 513.00 955.00 C 395.75 954.50 285.45 910.02 201.75 827.25 C 118.06 744.48 71.32 636.15 70.00 519.00 C 68.68 401.85 113.94 289.86 196.25 206.25 C 278.55 122.64 386.96 74.00 504.00 74.00
C 508.09 73.60 512.98 73.61 517.00 74.00 Z"/>
</g>
<g fill="None" fill-opacity="0.0" stroke="#929592" stroke-opacity="1.00" stroke-width="0.3"><path d="
M 504.00 74.00 
C 508.33 74.00 512.67 74.00 517.00 74.00
C 512.98 73.61 508.09 73.60 504.00 74.00 Z"/>
</g>
<g fill="None" fill-opacity="0.0" stroke="#010704" stroke-opacity="1.00" stroke-width="0.3"><path d="
M 517.00 74.00 
C 512.67 74.00 508.33 74.00 504.00 74.00
C 386.96 74.00 278.55 122.64 196.25 206.25 C 113.94 289.86 68.68 401.85 70.00 519.00 C 71.32 636.15 118.06 744.48 201.75 827.25 C 285.45 910.02 395.75 954.50 513.00 955.00 C 630.25 955.50 740.48 909.86 823.25 826.25 C 906.01 742.63 951.90 633.17 953.00 516.00 C 954.10 398.83 908.58 287.23 825.75 204.25 C 742.92 121.27 633.85 74.00 517.00 74.00
M 922.00 505.00 
C 922.55 510.67 922.54 517.40 922.00 523.00
C 922.00 630.88 875.66 730.71 799.25 807.25 C 722.84 883.79 616.36 926.20 508.00 924.00 C 399.64 921.80 298.22 880.22 220.75 803.25 C 143.28 726.28 101.07 623.82 101.00 515.00 C 100.93 406.18 143.21 304.54 219.75 226.75 C 296.29 148.97 397.53 106.57 506.00 105.00 C 614.47 103.43 721.05 144.38 798.25 220.75 C 875.45 297.12 922.00 396.69 922.00 505.00 Z"/>
</g>
<g fill="None" fill-opacity="0.0" stroke="#FCFCF9" stroke-opacity="1.00" stroke-width="0.3"><path d="
M 922.00 523.00 
C 922.00 517.00 922.00 511.00 922.00 505.00
C 922.00 396.69 875.45 297.12 798.25 220.75 C 721.05 144.38 614.47 103.43 506.00 105.00 C 397.53 106.57 296.29 148.97 219.75 226.75 C 143.21 304.54 100.93 406.18 101.00 515.00 C 101.07 623.82 143.28 726.28 220.75 803.25 C 298.22 880.22 399.64 921.80 508.00 924.00 C 616.36 926.20 722.84 883.79 799.25 807.25 C 875.66 730.71 922.00 630.88 922.00 523.00
M 529.00 131.00 
C 567.63 134.74 615.02 141.17 650.02 155.98 C 685.03 170.78 714.46 185.63 743.70 208.30 C 772.94 230.97 794.43 251.38 817.25 280.75 C 840.06 310.13 855.96 339.31 869.98 375.02 C 883.99 410.74 894.00 454.50 895.99 495.01 C 897.98 535.52 891.30 588.31 880.07 625.07 C 868.85 661.83 853.76 694.27 833.08 725.08 C 812.41 755.90 793.31 778.43 765.25 803.25 C 737.18 828.06 712.00 844.95 677.77 861.77 C 643.54 878.59 604.46 889.29 565.00 895.00 C 525.53 900.71 467.92 897.98 429.98 889.02 C 392.03 880.07 357.01 867.36 324.25 848.75 C 291.50 830.13 267.73 812.74 240.75 786.25 C 213.77 759.76 196.13 735.25 177.08 702.92 C 158.02 670.60 144.89 635.84 136.02 597.98 C 127.16 560.11 124.72 503.64 130.33 464.33 C 135.94 425.02 146.85 385.85 163.77 351.77 C 180.69 317.70 196.69 290.52 221.75 262.75 C 246.82 234.98 268.22 214.39 299.25 194.25 C 330.28 174.10 361.60 158.25 398.67 147.67 C 435.74 137.09 487.50 126.98 529.00 131.00 Z"/>
</g>
<g fill="None" fill-opacity="0.0" stroke="#020705" stroke-opacity="1.00" stroke-width="0.3"><path d="
M 529.00 131.00 
C 487.50 126.98 435.74 137.09 398.67 147.67 C 361.60 158.25 330.28 174.10 299.25 194.25 C 268.22 214.39 246.82 234.98 221.75 262.75 C 196.69 290.52 180.69 317.70 163.77 351.77 C 146.85 385.85 135.94 425.02 130.33 464.33 C 124.72 503.64 127.16 560.11 136.02 597.98 C 144.89 635.84 158.02 670.60 177.08 702.92 C 196.13 735.25 213.77 759.76 240.75 786.25 C 267.73 812.74 291.50 830.13 324.25 848.75 C 357.01 867.36 392.03 880.07 429.98 889.02 C 467.92 897.98 525.53 900.71 565.00 895.00 C 604.46 889.29 643.54 878.59 677.77 861.77 C 712.00 844.95 737.18 828.06 765.25 803.25 C 793.31 778.43 812.41 755.90 833.08 725.08 C 853.76 694.27 868.85 661.83 880.07 625.07 C 891.30 588.31 897.98 535.52 895.99 495.01 C 894.00 454.50 883.99 410.74 869.98 375.02 C 855.96 339.31 840.06 310.13 817.25 280.75 C 794.43 251.38 772.94 230.97 743.70 208.30 C 714.46 185.63 685.03 170.78 650.02 155.98 C 615.02 141.17 567.63 134.74 529.00 131.00
M 540.00 162.00 
C 576.88 165.57 620.12 174.36 653.22 189.78 C 686.33 205.19 713.79 220.14 741.08 243.92 C 768.37 267.70 787.59 288.50 807.77 318.23 C 827.95 347.96 842.14 379.38 852.98 415.02 C 863.81 450.67 869.58 503.12 866.00 542.00 C 862.43 580.88 853.39 621.15 838.07 655.07 C 822.75 689.00 806.68 714.42 783.25 742.25 C 759.81 770.08 738.96 788.76 709.25 809.25 C 679.55 829.75 648.68 844.03 612.93 854.93 C 577.17 865.82 523.88 870.39 485.00 867.00 C 446.12 863.61 406.01 853.83 371.93 839.07 C 337.84 824.31 312.05 808.16 284.25 784.75 C 256.45 761.34 237.49 740.83 216.75 711.25 C 196.01 681.66 182.47 650.50 171.02 614.98 C 159.58 579.45 154.78 526.88 157.98 487.98 C 161.17 449.07 169.77 408.31 185.77 374.77 C 201.77 341.23 216.50 314.82 240.25 287.25 C 264.00 259.67 283.88 239.95 314.25 220.25 C 344.62 200.54 375.25 185.85 411.68 175.68 C 448.11 165.50 499.17 158.05 540.00 162.00 Z"/>
</g>
<g fill="None" fill-opacity="0.0" stroke="#FEFEFA" stroke-opacity="1.00" stroke-width="0.3"><path d="
M 540.00 162.00 
C 499.17 158.05 448.11 165.50 411.68 175.68 C 375.25 185.85 344.62 200.54 314.25 220.25 C 283.88 239.95 264.00 259.67 240.25 287.25 C 216.50 314.82 201.77 341.23 185.77 374.77 C 169.77 408.31 161.17 449.07 157.98 487.98 C 154.78 526.88 159.58 579.45 171.02 614.98 C 182.47 650.50 196.01 681.66 216.75 711.25 C 237.49 740.83 256.45 761.34 284.25 784.75 C 312.05 808.16 337.84 824.31 371.93 839.07 C 406.01 853.83 446.12 863.61 485.00 867.00 C 523.88 870.39 577.17 865.82 612.93 854.93 C 648.68 844.03 679.55 829.75 709.25 809.25 C 738.96 788.76 759.81 770.08 783.25 742.25 C 806.68 714.42 822.75 689.00 838.07 655.07 C 853.39 621.15 862.43 580.88 866.00 542.00 C 869.58 503.12 863.81 450.67 852.98 415.02 C 842.14 379.38 827.95 347.96 807.77 318.23 C 787.59 288.50 768.37 267.70 741.08 243.92 C 713.79 220.14 686.33 205.19 653.22 189.78 C 620.12 174.36 576.88 165.57 540.00 162.00
M 623.00 293.00 
C 623.00 308.50 622.17 325.32 624.00 340.00
C 631.42 339.38 636.85 328.55 643.25 324.25 C 649.65 319.95 655.32 311.55 660.25 305.25 C 665.18 298.96 668.94 290.47 672.92 282.92 C 676.91 275.38 677.09 264.60 688.03 262.03 C 698.97 259.45 698.16 275.37 694.08 283.08 C 689.99 290.79 686.61 299.58 681.75 306.75 C 676.88 313.91 672.38 320.28 666.75 326.75 C 661.12 333.22 655.52 339.65 648.75 344.75 C 641.99 349.85 636.75 355.62 630.75 361.75 C 624.75 367.88 618.91 374.80 615.70 382.70 C 612.48 390.59 607.76 397.93 603.25 405.25 C 598.74 412.56 593.92 420.01 589.08 427.08 C 584.24 434.15 578.94 440.10 574.25 447.25 C 569.55 454.39 564.35 461.24 559.25 468.25 C 554.15 475.26 547.84 482.51 546.00 491.00
C 560.59 490.83 575.79 483.79 589.22 480.22 C 602.65 476.65 611.14 466.51 619.30 456.30 C 627.46 446.10 636.50 437.05 647.25 430.25 C 657.99 423.44 672.12 419.40 678.92 407.92 C 685.72 396.44 689.57 381.95 695.92 370.92 C 702.28 359.89 708.23 346.88 717.75 338.75 C 727.28 330.63 731.97 313.51 746.67 313.67 C 761.37 313.83 748.44 337.60 739.75 344.75 C 731.06 351.90 723.22 365.48 716.25 375.25 C 709.27 385.01 704.90 401.93 700.00 413.00
C 712.50 410.52 728.34 409.34 739.69 403.69 C 751.05 398.05 761.94 396.30 770.25 385.25 C 778.55 374.19 800.92 376.78 794.08 391.08 C 787.23 405.37 777.31 404.53 766.92 412.92 C 756.53 421.32 744.61 423.25 732.33 427.33 C 720.04 431.41 702.94 432.57 690.33 435.33 C 677.72 438.09 665.94 442.40 655.30 449.30 C 644.67 456.21 639.33 466.51 632.00 476.00
C 635.42 477.78 640.82 477.00 645.00 477.00
C 648.67 477.00 652.33 477.00 656.00 477.00
C 669.30 477.00 674.34 472.14 687.22 469.22 C 700.11 466.30 699.24 482.95 688.77 487.77 C 678.30 492.59 670.78 496.19 659.00 497.00 C 647.21 497.81 632.89 497.94 621.00 498.00 C 609.11 498.06 598.01 500.62 586.98 502.98 C 575.94 505.33 566.76 509.07 556.00 512.00
C 554.02 524.57 572.77 521.21 583.07 524.93 C 593.38 528.65 607.03 529.87 618.02 532.98 C 629.02 536.08 645.24 535.74 656.22 533.22 C 667.21 530.70 677.87 525.83 688.07 522.07 C 698.27 518.32 708.93 515.34 718.08 510.08 C 727.23 504.81 733.49 496.74 740.30 489.30 C 747.11 481.86 753.13 474.17 760.25 467.25 C 767.36 460.33 780.09 454.26 789.01 453.01 C 797.92 451.75 818.59 441.92 820.99 455.01 C 823.40 468.10 802.79 469.51 793.98 470.98 C 785.17 472.44 773.69 478.73 767.75 486.75 C 761.81 494.78 755.11 502.99 748.00 510.00
C 757.82 511.55 768.84 514.83 778.68 517.32 C 788.52 519.81 799.92 524.63 810.00 525.00 C 820.09 525.37 831.96 536.34 820.77 542.77 C 809.58 549.20 798.60 543.12 787.78 541.22 C 776.96 539.32 768.80 534.60 757.98 532.02 C 747.15 529.45 733.32 531.44 722.78 533.78 C 712.24 536.12 702.08 538.23 692.00 542.00
C 699.99 549.37 710.26 555.04 718.25 562.75 C 726.24 570.47 736.05 576.66 744.08 583.92 C 752.12 591.18 766.58 597.05 776.01 598.99 C 785.44 600.93 811.13 599.89 808.00 614.00 C 804.87 628.11 780.75 621.41 770.93 620.07 C 761.11 618.74 747.11 612.04 738.30 605.70 C 729.49 599.36 720.92 592.26 712.30 584.70 C 703.68 577.13 695.89 570.65 685.77 564.23 C 675.66 557.81 659.53 554.65 647.00 558.00
C 651.90 567.03 660.82 573.23 667.25 580.75 C 673.67 588.28 688.99 589.34 688.99 602.01 C 688.99 614.68 669.75 607.19 662.77 601.23 C 655.80 595.27 645.67 589.74 639.25 581.75 C 632.82 573.76 627.20 565.89 618.25 559.75 C 609.31 553.60 598.96 549.98 587.93 547.07 C 576.89 544.17 562.23 540.50 550.00 541.00
C 548.14 553.33 555.99 564.36 562.25 573.75 C 568.52 583.14 575.98 590.35 585.25 596.75 C 594.52 603.16 605.18 607.24 615.23 612.77 C 625.27 618.30 634.73 623.04 644.70 629.30 C 654.67 635.57 667.30 639.53 679.00 641.00 C 690.70 642.47 708.60 643.07 719.07 646.93 C 729.55 650.79 740.92 656.39 748.25 663.75 C 755.58 671.12 773.05 672.75 772.99 685.01 C 772.93 697.27 749.30 691.13 742.25 683.75 C 735.21 676.36 723.37 670.88 712.98 667.02 C 702.58 663.17 684.68 662.31 673.00 661.00
C 679.27 670.86 683.89 684.83 690.75 694.25 C 697.62 703.66 702.08 717.76 714.70 721.30 C 727.32 724.85 734.97 748.06 720.00 747.00 C 705.02 745.93 700.17 733.81 689.75 726.25 C 679.34 718.69 675.59 706.18 669.08 695.92 C 662.56 685.67 658.11 673.46 650.25 663.75 C 642.38 654.05 633.44 646.54 622.77 640.23 C 612.10 633.92 599.97 628.04 589.00 622.00
C 591.28 633.24 592.43 647.61 593.00 659.00 C 593.57 670.39 596.29 681.88 602.25 690.75 C 608.22 699.62 615.77 703.98 622.75 711.25 C 629.73 718.52 636.63 724.85 642.25 732.75 C 647.86 740.66 654.76 750.10 657.92 759.08 C 661.09 768.05 668.48 782.81 661.69 791.69 C 654.91 800.58 644.61 783.92 643.07 775.93 C 641.54 767.93 634.89 755.80 629.08 748.92 C 623.28 742.03 616.82 733.40 610.25 726.75 C 603.67 720.10 594.24 713.38 588.00 707.00
C 585.76 717.12 587.46 732.89 588.93 742.07 C 590.40 751.25 601.76 762.83 597.00 772.00 C 592.24 781.17 577.83 769.20 575.70 761.31 C 573.56 753.41 566.05 742.23 567.01 731.99 C 567.96 721.75 568.45 706.88 569.00 696.00 C 569.55 685.12 571.95 671.89 572.00 661.00 C 572.05 650.11 570.72 636.71 567.67 627.33 C 564.62 617.95 559.91 608.42 555.08 600.92 C 550.25 593.43 545.35 583.43 540.08 577.92 C 534.81 572.41 528.81 557.46 520.78 560.78 C 512.75 564.10 515.42 582.11 513.22 591.22 C 511.03 600.33 510.84 615.81 511.98 626.02 C 513.12 636.24 515.26 647.68 517.98 658.02 C 520.69 668.37 522.93 679.61 523.00 691.00 C 523.07 702.39 522.11 718.43 523.78 729.22 C 525.44 740.02 529.07 748.13 533.31 757.69 C 537.54 767.26 539.77 774.17 545.92 783.08 C 552.08 791.98 551.73 799.96 556.99 810.01 C 562.25 820.06 554.78 834.94 544.25 826.75 C 533.73 818.55 539.18 809.03 532.68 800.32 C 526.18 791.61 524.74 784.19 519.70 775.31 C 514.65 766.42 512.36 757.64 508.68 748.32
C 498.67 757.96 500.28 771.27 493.67 782.67 C 487.07 794.08 499.87 814.09 486.75 822.75 C 473.63 831.41 468.83 806.57 472.00 795.00 C 475.17 783.42 475.38 766.06 481.78 754.78 C 488.17 743.49 491.82 733.67 497.92 721.92 C 504.03 710.18 505.01 693.46 503.00 680.00 C 500.99 666.53 495.69 653.36 493.00 640.00
C 484.88 647.51 478.68 655.98 471.25 665.25 C 463.81 674.51 458.78 683.96 454.68 695.68 C 450.57 707.39 447.98 721.16 446.22 734.22 C 444.47 747.28 443.54 760.37 438.02 773.02 C 432.51 785.68 432.31 792.91 421.75 804.75 C 411.20 816.60 400.48 800.84 408.93 788.93 C 417.37 777.02 418.63 768.70 422.93 755.93 C 427.22 743.16 427.73 729.21 429.93 715.93 C 432.12 702.65 433.95 689.44 439.00 677.00
C 427.48 680.12 414.90 687.06 407.25 697.25 C 399.60 707.44 393.61 720.35 389.08 732.08 C 384.54 743.81 374.12 753.87 368.23 764.23 C 362.34 774.59 339.36 785.77 339.00 771.00 C 338.65 756.23 355.38 751.63 361.25 740.25 C 367.12 728.87 374.92 717.25 379.31 705.31 C 383.69 693.36 392.34 683.42 401.75 674.75 C 411.17 666.08 422.74 660.79 434.23 655.23 C 445.72 649.67 458.11 645.49 467.25 635.25 C 476.38 625.00 484.22 616.41 487.93 602.93 C 491.63 589.44 495.89 571.24 491.00 557.00
C 481.04 559.24 473.40 566.87 466.25 574.25 C 459.10 581.63 452.42 588.43 444.30 594.30 C 436.19 600.18 426.35 605.02 417.31 609.31 C 408.26 613.59 398.96 618.28 392.25 626.25 C 385.53 634.22 382.23 645.29 376.70 653.70 C 371.16 662.10 365.62 670.61 358.75 677.75 C 351.88 684.90 344.56 692.56 336.75 697.75 C 328.94 702.95 319.44 711.16 310.92 713.92 C 302.41 716.69 291.63 731.63 282.00 727.00 C 272.37 722.37 285.79 704.64 293.25 701.25 C 300.71 697.85 311.70 690.40 319.25 685.25 C 326.79 680.10 335.17 673.16 341.75 665.75 C 348.33 658.35 355.47 651.40 360.75 642.75 C 366.04 634.11 370.27 622.43 374.00 613.00
C 362.62 612.64 347.13 612.90 336.99 615.99 C 326.86 619.09 318.64 624.09 310.31 629.31 C 301.97 634.52 295.03 641.03 287.75 646.75 C 280.47 652.48 269.96 657.56 262.92 661.92 C 255.89 666.29 236.06 673.12 235.01 661.99 C 233.96 650.86 248.18 647.43 255.23 642.23 C 262.28 637.03 272.67 631.93 280.08 626.08 C 287.49 620.23 295.60 614.86 304.08 610.08 C 312.56 605.30 321.43 599.20 331.67 597.67 C 341.92 596.15 355.97 591.66 367.00 593.00 C 378.03 594.34 393.23 594.09 403.22 591.22 C 413.21 588.36 422.91 583.69 430.70 578.70 C 438.48 573.70 447.08 564.82 451.75 558.75 C 456.42 552.69 470.85 538.37 459.97 537.03 C 449.10 535.68 438.44 544.12 426.98 543.98 C 415.51 543.83 401.10 547.47 389.00 546.00 C 376.90 544.53 364.22 547.70 353.32 550.32 C 342.43 552.94 331.78 556.32 321.00 558.00 C 310.22 559.67 300.07 563.33 291.75 569.75 C 283.43 576.17 275.73 579.99 267.25 585.25 C 258.78 590.52 248.48 595.39 238.99 596.99 C 229.50 598.59 214.81 605.19 206.77 595.23 C 198.73 585.27 216.87 577.36 226.02 578.02 C 235.18 578.69 247.58 571.59 256.08 568.08 C 264.58 564.56 272.30 556.95 280.25 552.25
C 270.15 546.07 262.88 538.79 251.75 532.25 C 240.63 525.70 228.79 518.80 214.00 521.00 C 199.21 523.20 189.92 503.84 206.08 500.08 C 222.23 496.31 234.15 500.58 247.08 505.92 C 260.00 511.27 265.17 518.72 276.70 525.30 C 288.23 531.89 299.16 537.86 313.00 538.00 C 326.84 538.14 340.34 533.61 353.00 529.00
C 340.82 525.54 333.68 518.62 320.77 515.23 C 307.87 511.83 301.20 492.07 317.00 494.00 C 332.80 495.93 338.17 502.03 351.23 506.77 C 364.29 511.52 370.88 517.07 383.68 521.32 C 396.48 525.57 411.52 525.04 425.00 523.00 C 438.48 520.96 450.93 515.76 465.00 516.00
C 462.85 503.95 449.29 502.04 438.93 498.07 C 428.56 494.10 415.16 491.70 403.99 489.01 C 392.82 486.31 381.70 482.14 370.77 478.23 C 359.84 474.32 351.37 468.38 339.93 465.07 C 328.48 461.76 311.24 462.22 299.00 464.00 C 286.76 465.78 271.04 463.30 259.78 461.22 C 248.52 459.14 236.58 452.56 226.92 450.08 C 217.27 447.59 201.53 434.96 211.75 426.75 C 221.98 418.55 233.32 433.43 244.02 434.98 C 254.73 436.52 265.84 445.08 278.22 444.78 C 290.60 444.47 308.46 446.13 320.00 442.00
C 313.25 435.33 309.46 428.24 303.23 420.77 C 297.00 413.30 290.23 408.89 283.30 401.70 C 276.38 394.50 267.79 392.76 259.31 386.69 C 250.82 380.63 243.04 381.02 238.08 368.92 C 233.11 356.82 250.78 356.63 259.08 362.92 C 267.37 369.22 276.00 371.24 283.75 377.25 C 291.49 383.27 297.72 387.72 304.75 394.25 C 311.78 400.77 317.67 406.75 323.75 414.25 C 329.84 421.74 334.53 428.45 341.25 435.75 C 347.97 443.05 354.74 448.10 363.69 452.31 C 372.65 456.51 382.35 459.73 392.02 462.98 C 401.70 466.23 412.51 468.90 422.67 471.33 C 432.84 473.76 443.79 476.38 454.00 479.00
C 448.85 470.34 441.56 462.51 436.25 453.75 C 430.94 444.99 423.57 437.97 415.75 431.25 C 407.94 424.52 400.81 417.62 392.92 411.08 C 385.02 404.55 378.87 396.07 373.23 387.77 C 367.59 379.47 362.00 371.10 353.75 364.25 C 345.50 357.39 333.93 355.56 324.78 350.22 C 315.62 344.89 306.10 341.84 298.30 333.70 C 290.51 325.56 281.37 323.49 279.07 309.93 C 276.77 296.36 295.56 300.72 302.25 309.75 C 308.94 318.79 317.97 321.84 326.25 328.75 C 334.52 335.67 347.29 338.09 357.00 342.00
C 353.22 331.14 352.76 318.81 349.02 307.98 C 345.28 297.14 346.36 285.11 338.23 275.77 C 330.09 266.43 340.43 248.34 350.08 256.92 C 359.73 265.50 359.54 275.42 363.93 286.07 C 368.31 296.73 368.83 309.12 371.93 320.07 C 375.03 331.03 376.38 344.24 380.32 354.68 C 384.26 365.12 388.66 374.24 394.77 383.23 C 400.88 392.22 409.31 396.81 417.00 404.00
C 414.88 394.15 415.36 375.40 411.07 366.93 C 406.79 358.45 402.53 336.28 415.67 338.33 C 428.81 340.39 426.80 357.63 430.98 367.02 C 435.15 376.42 434.41 394.47 436.99 405.01 C 439.57 415.55 444.19 426.99 449.92 436.08 C 455.66 445.16 463.39 451.15 469.25 459.75 C 475.11 468.36 493.96 476.80 492.02 462.98 C 490.08 449.15 488.49 437.01 487.00 424.00 C 485.51 410.99 483.39 398.18 480.67 386.33 C 477.95 374.47 473.22 364.79 468.68 354.32 C 464.14 343.86 459.30 335.48 454.08 325.92 C 448.85 316.37 442.52 308.63 435.75 300.25 C 428.98 291.87 423.07 284.52 415.25 276.75 C 407.42 268.99 404.62 258.06 399.02 248.98 C 393.43 239.89 394.05 218.53 407.08 224.92 C 420.10 231.32 414.27 244.49 421.92 253.08 C 429.57 261.68 434.01 269.30 441.75 277.25 C 449.50 285.19 455.47 292.50 461.75 301.25 C 468.04 309.99 472.95 319.35 478.31 328.70 C 483.66 338.04 488.93 347.99 493.00 358.00
C 496.67 347.90 497.48 336.28 499.33 325.33 C 501.18 314.38 498.85 300.85 494.69 291.31 C 490.54 281.76 486.24 273.74 482.22 264.78 C 478.21 255.81 473.62 244.51 471.22 235.78 C 468.83 227.05 463.14 209.32 474.08 205.08 C 485.02 200.85 486.98 218.84 489.33 226.67 C 491.67 234.50 496.11 247.82 499.92 256.08 C 503.74 264.33 508.56 274.83 514.00 282.00
C 520.51 270.29 525.12 265.79 530.77 252.77 C 536.42 239.76 536.94 231.21 539.00 215.00 C 541.06 198.79 560.14 205.58 557.00 221.00 C 553.86 236.42 554.43 246.22 549.02 259.02 C 543.62 271.83 539.96 278.11 533.23 289.23 C 526.50 300.35 523.18 310.24 521.00 323.00 C 518.83 335.77 516.10 348.41 513.22 361.22 C 510.34 374.03 507.38 387.37 507.00 401.00 C 506.63 414.64 507.58 431.32 510.00 444.00 C 512.41 456.69 514.19 469.97 529.00 472.00
C 536.27 464.29 540.50 457.99 545.92 448.92 C 551.35 439.86 556.23 430.28 557.00 419.00 C 557.76 407.71 553.42 393.98 553.22 382.78 C 553.02 371.57 549.61 353.88 552.00 343.00 C 554.39 332.12 550.86 318.35 559.25 310.25 C 567.65 302.16 576.31 323.22 572.67 332.67 C 569.03 342.12 571.55 358.96 572.00 370.00 C 572.45 381.05 575.78 395.50 576.00 407.00
C 585.96 397.80 590.77 389.18 596.77 375.77 C 602.77 362.36 602.73 344.93 603.00 329.00 C 603.27 313.07 601.94 294.23 604.00 278.00 C 606.06 261.77 607.65 251.78 614.92 235.92 C 622.19 220.06 639.91 234.08 631.68 248.68 C 623.44 263.28 624.81 276.92 623.00 293.00 Z"/>
</g>
<g fill="None" fill-opacity="0.0" stroke="#030806" stroke-opacity="1.00" stroke-width="0.3"><path d="
M 656.00 477.00 
C 652.92 477.30 648.75 478.00 645.00 478.00
C 640.74 478.00 631.71 479.46 632.00 476.00
C 639.33 466.51 644.67 456.21 655.30 449.30 C 665.94 442.40 677.72 438.09 690.33 435.33 C 702.94 432.57 720.04 431.41 732.33 427.33 C 744.61 423.25 756.53 421.32 766.92 412.92 C 777.31 404.53 787.23 405.37 794.08 391.08 C 800.92 376.78 778.55 374.19 770.25 385.25 C 761.94 396.30 751.05 398.05 739.69 403.69 C 728.34 409.34 712.50 410.52 700.00 413.00
C 704.90 401.93 709.27 385.01 716.25 375.25 C 723.22 365.48 731.06 351.90 739.75 344.75 C 748.44 337.60 761.37 313.83 746.67 313.67 C 731.97 313.51 727.28 330.63 717.75 338.75 C 708.23 346.88 702.28 359.89 695.92 370.92 C 689.57 381.95 685.72 396.44 678.92 407.92 C 672.12 419.40 657.99 423.44 647.25 430.25 C 636.50 437.05 627.46 446.10 619.30 456.30 C 611.14 466.51 602.65 476.65 589.22 480.22 C 575.79 483.79 560.59 490.83 546.00 491.00
C 547.84 482.51 554.15 475.26 559.25 468.25 C 564.35 461.24 569.55 454.39 574.25 447.25 C 578.94 440.10 584.24 434.15 589.08 427.08 C 593.92 420.01 598.74 412.56 603.25 405.25 C 607.76 397.93 612.48 390.59 615.70 382.70 C 618.91 374.80 624.75 367.88 630.75 361.75 C 636.75 355.62 641.99 349.85 648.75 344.75 C 655.52 339.65 661.12 333.22 666.75 326.75 C 672.38 320.28 676.88 313.91 681.75 306.75 C 686.61 299.58 689.99 290.79 694.08 283.08 C 698.16 275.37 698.97 259.45 688.03 262.03 C 677.09 264.60 676.91 275.38 672.92 282.92 C 668.94 290.47 665.18 298.96 660.25 305.25 C 655.32 311.55 649.65 319.95 643.25 324.25 C 636.85 328.55 631.42 339.38 624.00 340.00
C 620.18 340.32 622.59 331.79 622.00 327.00 C 621.41 322.21 622.61 315.22 622.00 310.00 C 621.39 304.78 622.56 297.56 623.00 293.00
C 624.81 276.92 623.44 263.28 631.68 248.68 C 639.91 234.08 622.19 220.06 614.92 235.92 C 607.65 251.78 606.06 261.77 604.00 278.00 C 601.94 294.23 603.27 313.07 603.00 329.00 C 602.73 344.93 602.77 362.36 596.77 375.77 C 590.77 389.18 585.96 397.80 576.00 407.00
C 575.78 395.50 572.45 381.05 572.00 370.00 C 571.55 358.96 569.03 342.12 572.67 332.67 C 576.31 323.22 567.65 302.16 559.25 310.25 C 550.86 318.35 554.39 332.12 552.00 343.00 C 549.61 353.88 553.02 371.57 553.22 382.78 C 553.42 393.98 557.76 407.71 557.00 419.00 C 556.23 430.28 551.35 439.86 545.92 448.92 C 540.50 457.99 536.27 464.29 529.00 472.00
C 514.19 469.97 512.41 456.69 510.00 444.00 C 507.58 431.32 506.63 414.64 507.00 401.00 C 507.38 387.37 510.34 374.03 513.22 361.22 C 516.10 348.41 518.83 335.77 521.00 323.00 C 523.18 310.24 526.50 300.35 533.23 289.23 C 539.96 278.11 543.62 271.83 549.02 259.02 C 554.43 246.22 553.86 236.42 557.00 221.00 C 560.14 205.58 541.06 198.79 539.00 215.00 C 536.94 231.21 536.42 239.76 530.77 252.77 C 525.12 265.79 520.51 270.29 514.00 282.00
C 508.56 274.83 503.74 264.33 499.92 256.08 C 496.11 247.82 491.67 234.50 489.33 226.67 C 486.98 218.84 485.02 200.85 474.08 205.08 C 463.14 209.32 468.83 227.05 471.22 235.78 C 473.62 244.51 478.21 255.81 482.22 264.78 C 486.24 273.74 490.54 281.76 494.69 291.31 C 498.85 300.85 501.18 314.38 499.33 325.33 C 497.48 336.28 496.67 347.90 493.00 358.00
C 488.93 347.99 483.66 338.04 478.31 328.70 C 472.95 319.35 468.04 309.99 461.75 301.25 C 455.47 292.50 449.50 285.19 441.75 277.25 C 434.01 269.30 429.57 261.68 421.92 253.08 C 414.27 244.49 420.10 231.32 407.08 224.92 C 394.05 218.53 393.43 239.89 399.02 248.98 C 404.62 258.06 407.42 268.99 415.25 276.75 C 423.07 284.52 428.98 291.87 435.75 300.25 C 442.52 308.63 448.85 316.37 454.08 325.92 C 459.30 335.48 464.14 343.86 468.68 354.32 C 473.22 364.79 477.95 374.47 480.67 386.33 C 483.39 398.18 485.51 410.99 487.00 424.00 C 488.49 437.01 490.08 449.15 492.02 462.98 C 493.96 476.80 475.11 468.36 469.25 459.75 C 463.39 451.15 455.66 445.16 449.92 436.08 C 444.19 426.99 439.57 415.55 436.99 405.01 C 434.41 394.47 435.15 376.42 430.98 367.02 C 426.80 357.63 428.81 340.39 415.67 338.33 C 402.53 336.28 406.79 358.45 411.07 366.93 C 415.36 375.40 414.88 394.15 417.00 404.00
C 409.31 396.81 400.88 392.22 394.77 383.23 C 388.66 374.24 384.26 365.12 380.32 354.68 C 376.38 344.24 375.03 331.03 371.93 320.07 C 368.83 309.12 368.31 296.73 363.93 286.07 C 359.54 275.42 359.73 265.50 350.08 256.92 C 340.43 248.34 330.09 266.43 338.23 275.77 C 346.36 285.11 345.28 297.14 349.02 307.98 C 352.76 318.81 353.22 331.14 357.00 342.00
C 347.29 338.09 334.52 335.67 326.25 328.75 C 317.97 321.84 308.94 318.79 302.25 309.75 C 295.56 300.72 276.77 296.36 279.07 309.93 C 281.37 323.49 290.51 325.56 298.30 333.70 C 306.10 341.84 315.62 344.89 324.78 350.22 C 333.93 355.56 345.50 357.39 353.75 364.25 C 362.00 371.10 367.59 379.47 373.23 387.77 C 378.87 396.07 385.02 404.55 392.92 411.08 C 400.81 417.62 407.94 424.52 415.75 431.25 C 423.57 437.97 430.94 444.99 436.25 453.75 C 441.56 462.51 448.85 470.34 454.00 479.00
C 443.79 476.38 432.84 473.76 422.67 471.33 C 412.51 468.90 401.70 466.23 392.02 462.98 C 382.35 459.73 372.65 456.51 363.69 452.31 C 354.74 448.10 347.97 443.05 341.25 435.75 C 334.53 428.45 329.84 421.74 323.75 414.25 C 317.67 406.75 311.78 400.77 304.75 394.25 C 297.72 387.72 291.49 383.27 283.75 377.25 C 276.00 371.24 267.37 369.22 259.08 362.92 C 250.78 356.63 233.11 356.82 238.08 368.92 C 243.04 381.02 250.82 380.63 259.31 386.69 C 267.79 392.76 276.38 394.50 283.30 401.70 C 290.23 408.89 297.00 413.30 303.23 420.77 C 309.46 428.24 313.25 435.33 320.00 442.00
C 308.46 446.13 290.60 444.47 278.22 444.78 C 265.84 445.08 254.73 436.52 244.02 434.98 C 233.32 433.43 221.98 418.55 211.75 426.75 C 201.53 434.96 217.27 447.59 226.92 450.08 C 236.58 452.56 248.52 459.14 259.78 461.22 C 271.04 463.30 286.76 465.78 299.00 464.00 C 311.24 462.22 328.48 461.76 339.93 465.07 C 351.37 468.38 359.84 474.32 370.77 478.23 C 381.70 482.14 392.82 486.31 403.99 489.01 C 415.16 491.70 428.56 494.10 438.93 498.07 C 449.29 502.04 462.85 503.95 465.00 516.00
C 450.93 515.76 438.48 520.96 425.00 523.00 C 411.52 525.04 396.48 525.57 383.68 521.32 C 370.88 517.07 364.29 511.52 351.23 506.77 C 338.17 502.03 332.80 495.93 317.00 494.00 C 301.20 492.07 307.87 511.83 320.77 515.23 C 333.68 518.62 340.82 525.54 353.00 529.00
C 340.34 533.61 326.84 538.14 313.00 538.00 C 299.16 537.86 288.23 531.89 276.70 525.30 C 265.17 518.72 260.00 511.27 247.08 505.92 C 234.15 500.58 222.23 496.31 206.08 500.08 C 189.92 503.84 199.21 523.20 214.00 521.00 C 228.79 518.80 240.63 525.70 251.75 532.25 C 262.88 538.79 270.15 546.07 281.00 552.00
C 272.30 556.95 264.58 564.56 256.08 568.08 C 247.58 571.59 235.18 578.69 226.02 578.02 C 216.87 577.36 198.73 585.27 206.77 595.23 C 214.81 605.19 229.50 598.59 238.99 596.99 C 248.48 595.39 258.78 590.52 267.25 585.25 C 275.73 579.99 283.43 576.17 291.75 569.75 C 300.07 563.33 310.22 559.67 321.00 558.00 C 331.78 556.32 342.43 552.94 353.32 550.32 C 364.22 547.70 376.90 544.53 389.00 546.00 C 401.10 547.47 415.51 543.83 426.98 543.98 C 438.44 544.12 449.10 535.68 459.97 537.03 C 470.85 538.37 456.42 552.69 451.75 558.75 C 447.08 564.82 438.48 573.70 430.70 578.70 C 422.91 583.69 413.21 588.36 403.22 591.22 C 393.23 594.09 378.03 594.34 367.00 593.00 C 355.97 591.66 341.92 596.15 331.67 597.67 C 321.43 599.20 312.56 605.30 304.08 610.08 C 295.60 614.86 287.49 620.23 280.08 626.08 C 272.67 631.93 262.28 637.03 255.23 642.23 C 248.18 647.43 233.96 650.86 235.01 661.99 C 236.06 673.12 255.89 666.29 262.92 661.92 C 269.96 657.56 280.47 652.48 287.75 646.75 C 295.03 641.03 301.97 634.52 310.31 629.31 C 318.64 624.09 326.86 619.09 336.99 615.99 C 347.13 612.90 362.62 612.64 374.00 613.00
C 370.27 622.43 366.04 634.11 360.75 642.75 C 355.47 651.40 348.33 658.35 341.75 665.75 C 335.17 673.16 326.79 680.10 319.25 685.25 C 311.70 690.40 300.71 697.85 293.25 701.25 C 285.79 704.64 272.37 722.37 282.00 727.00 C 291.63 731.63 302.41 716.69 310.92 713.92 C 319.44 711.16 328.94 702.95 336.75 697.75 C 344.56 692.56 351.88 684.90 358.75 677.75 C 365.62 670.61 371.16 662.10 376.70 653.70 C 382.23 645.29 385.53 634.22 392.25 626.25 C 398.96 618.28 408.26 613.59 417.31 609.31 C 426.35 605.02 436.19 600.18 444.30 594.30 C 452.42 588.43 459.10 581.63 466.25 574.25 C 473.40 566.87 481.04 559.24 491.00 557.00
C 495.89 571.24 491.63 589.44 487.93 602.93 C 484.22 616.41 476.38 625.00 467.25 635.25 C 458.11 645.49 445.72 649.67 434.23 655.23 C 422.74 660.79 411.17 666.08 401.75 674.75 C 392.34 683.42 383.69 693.36 379.31 705.31 C 374.92 717.25 367.12 728.87 361.25 740.25 C 355.38 751.63 338.65 756.23 339.00 771.00 C 339.36 785.77 362.34 774.59 368.23 764.23 C 374.12 753.87 384.54 743.81 389.08 732.08 C 393.61 720.35 399.60 707.44 407.25 697.25 C 414.90 687.06 427.48 680.12 439.00 677.00
C 433.95 689.44 432.12 702.65 429.93 715.93 C 427.73 729.21 427.22 743.16 422.93 755.93 C 418.63 768.70 417.37 777.02 408.93 788.93 C 400.48 800.84 411.20 816.60 421.75 804.75 C 432.31 792.91 432.51 785.68 438.02 773.02 C 443.54 760.37 444.47 747.28 446.22 734.22 C 447.98 721.16 450.57 707.39 454.68 695.68 C 458.78 683.96 463.81 674.51 471.25 665.25 C 478.68 655.98 484.88 647.51 493.00 640.00
C 495.69 653.36 500.99 666.53 503.00 680.00 C 505.01 693.46 504.03 710.18 497.92 721.92 C 491.82 733.67 488.17 743.49 481.78 754.78 C 475.38 766.06 475.17 783.42 472.00 795.00 C 468.83 806.57 473.63 831.41 486.75 822.75 C 499.87 814.09 487.07 794.08 493.67 782.67 C 500.28 771.27 498.67 757.96 508.00 748.00
C 512.36 757.64 514.65 766.42 519.70 775.31 C 524.74 784.19 526.18 791.61 532.68 800.32 C 539.18 809.03 533.73 818.55 544.25 826.75 C 554.78 834.94 562.25 820.06 556.99 810.01 C 551.73 799.96 552.08 791.98 545.92 783.08 C 539.77 774.17 537.54 767.26 533.31 757.69 C 529.07 748.13 525.44 740.02 523.78 729.22 C 522.11 718.43 523.07 702.39 523.00 691.00 C 522.93 679.61 520.69 668.37 517.98 658.02 C 515.26 647.68 513.12 636.24 511.98 626.02 C 510.84 615.81 511.03 600.33 513.22 591.22 C 515.42 582.11 512.75 564.10 520.78 560.78 C 528.81 557.46 534.81 572.41 540.08 577.92 C 545.35 583.43 550.25 593.43 555.08 600.92 C 559.91 608.42 564.62 617.95 567.67 627.33 C 570.72 636.71 572.05 650.11 572.00 661.00 C 571.95 671.89 569.55 685.12 569.00 696.00 C 568.45 706.88 567.96 721.75 567.01 731.99 C 566.05 742.23 573.56 753.41 575.70 761.31 C 577.83 769.20 592.24 781.17 597.00 772.00 C 601.76 762.83 590.40 751.25 588.93 742.07 C 587.46 732.89 585.76 717.12 588.00 707.00
C 594.24 713.38 603.67 720.10 610.25 726.75 C 616.82 733.40 623.28 742.03 629.08 748.92 C 634.89 755.80 641.54 767.93 643.07 775.93 C 644.61 783.92 654.91 800.58 661.69 791.69 C 668.48 782.81 661.09 768.05 657.92 759.08 C 654.76 750.10 647.86 740.66 642.25 732.75 C 636.63 724.85 629.73 718.52 622.75 711.25 C 615.77 703.98 608.22 699.62 602.25 690.75 C 596.29 681.88 593.57 670.39 593.00 659.00 C 592.43 647.61 591.28 633.24 589.00 622.00
C 599.97 628.04 612.10 633.92 622.77 640.23 C 633.44 646.54 642.38 654.05 650.25 663.75 C 658.11 673.46 662.56 685.67 669.08 695.92 C 675.59 706.18 679.34 718.69 689.75 726.25 C 700.17 733.81 705.02 745.93 720.00 747.00 C 734.97 748.06 727.32 724.85 714.70 721.30 C 702.08 717.76 697.62 703.66 690.75 694.25 C 683.89 684.83 679.27 670.86 673.00 661.00
C 684.68 662.31 702.58 663.17 712.98 667.02 C 723.37 670.88 735.21 676.36 742.25 683.75 C 749.30 691.13 772.93 697.27 772.99 685.01 C 773.05 672.75 755.58 671.12 748.25 663.75 C 740.92 656.39 729.55 650.79 719.07 646.93 C 708.60 643.07 690.70 642.47 679.00 641.00 C 667.30 639.53 654.67 635.57 644.70 629.30 C 634.73 623.04 625.27 618.30 615.23 612.77 C 605.18 607.24 594.52 603.16 585.25 596.75 C 575.98 590.35 568.52 583.14 562.25 573.75 C 555.99 564.36 548.14 553.33 550.00 541.00
C 562.23 540.50 576.89 544.17 587.93 547.07 C 598.96 549.98 609.31 553.60 618.25 559.75 C 627.20 565.89 632.82 573.76 639.25 581.75 C 645.67 589.74 655.80 595.27 662.77 601.23 C 669.75 607.19 688.99 614.68 688.99 602.01 C 688.99 589.34 673.67 588.28 667.25 580.75 C 660.82 573.23 651.90 567.03 647.00 558.00
C 659.53 554.65 675.66 557.81 685.77 564.23 C 695.89 570.65 703.68 577.13 712.30 584.70 C 720.92 592.26 729.49 599.36 738.30 605.70 C 747.11 612.04 761.11 618.74 770.93 620.07 C 780.75 621.41 804.87 628.11 808.00 614.00 C 811.13 599.89 785.44 600.93 776.01 598.99 C 766.58 597.05 752.12 591.18 744.08 583.92 C 736.05 576.66 726.24 570.47 718.25 562.75 C 710.26 555.04 699.99 549.37 692.00 542.00
C 702.08 538.23 712.24 536.12 722.78 533.78 C 733.32 531.44 747.15 529.45 757.98 532.02 C 768.80 534.60 776.96 539.32 787.78 541.22 C 798.60 543.12 809.58 549.20 820.77 542.77 C 831.96 536.34 820.09 525.37 810.00 525.00 C 799.92 524.63 788.52 519.81 778.68 517.32 C 768.84 514.83 757.82 511.55 748.00 510.00
C 755.11 502.99 761.81 494.78 767.75 486.75 C 773.69 478.73 785.17 472.44 793.98 470.98 C 802.79 469.51 823.40 468.10 820.99 455.01 C 818.59 441.92 797.92 451.75 789.01 453.01 C 780.09 454.26 767.36 460.33 760.25 467.25 C 753.13 474.17 747.11 481.86 740.30 489.30 C 733.49 496.74 727.23 504.81 718.08 510.08 C 708.93 515.34 698.27 518.32 688.07 522.07 C 677.87 525.83 667.21 530.70 656.22 533.22 C 645.24 535.74 629.02 536.08 618.02 532.98 C 607.03 529.87 593.38 528.65 583.07 524.93 C 572.77 521.21 554.02 524.57 556.00 512.00
C 566.76 509.07 575.94 505.33 586.98 502.98 C 598.01 500.62 609.11 498.06 621.00 498.00 C 632.89 497.94 647.21 497.81 659.00 497.00 C 670.78 496.19 678.30 492.59 688.77 487.77 C 699.24 482.95 700.11 466.30 687.22 469.22 C 674.34 472.14 669.30 477.00 656.00 477.00 Z"/>
</g>
<g fill="None" fill-opacity="0.0" stroke="#858984" stroke-opacity="1.00" stroke-width="0.3"><path d="
M 624.00 340.00 
C 622.17 325.32 623.00 308.50 623.00 293.00
C 622.56 297.56 621.39 304.78 622.00 310.00 C 622.61 315.22 621.41 322.21 622.00 327.00 C 622.59 331.79 620.18 340.32 624.00 340.00 Z"/>
</g>
<g fill="None" fill-opacity="0.0" stroke="#7C7F7B" stroke-opacity="1.00" stroke-width="0.3"><path d="
M 645.00 478.00 
C 644.96 478.00 645.00 477.00 645.00 477.00
C 640.82 477.00 635.42 477.78 632.00 476.00
C 631.71 479.46 640.74 478.00 645.00 478.00 Z"/>
</g>
<g fill="None" fill-opacity="0.0" stroke="#5A5D59" stroke-opacity="1.00" stroke-width="0.3"><path d="
M 645.00 478.00 
C 648.75 478.00 652.92 477.30 656.00 477.00
C 652.33 477.00 648.67 477.00 645.00 477.00
C 645.00 477.00 644.96 478.00 645.00 478.00 Z"/>
</g>
<g fill="None" fill-opacity="0.0" stroke="#646965" stroke-opacity="1.00" stroke-width="0.3"><path d="
M 922.00 523.00 
C 922.54 517.40 922.55 510.67 922.00 505.00
C 922.00 511.00 922.00 517.00 922.00 523.00 Z"/>
</g>
<g fill="#FFFFFB" fill-opacity="1.00" stroke="None">
<path d="
M 0.00 1024.00 
L 1024.00 1024.00
L 1024.00 0.00
L 0.00 0.00
L 0.00 1024.00
M 517.00 74.00 
C 633.85 74.00 742.92 121.27 825.75 204.25 C 908.58 287.23 954.10 398.83 953.00 516.00 C 951.90 633.17 906.01 742.63 823.25 826.25 C 740.48 909.86 630.25 955.50 513.00 955.00 C 395.75 954.50 285.45 910.02 201.75 827.25 C 118.06 744.48 71.32 636.15 70.00 519.00 C 68.68 401.85 113.94 289.86 196.25 206.25 C 278.55 122.64 386.96 74.00 504.00 74.00
C 508.09 73.60 512.98 73.61 517.00 74.00 Z"/>
</g>
<g fill="#929592" fill-opacity="1.00" stroke="None">
<path d="
M 504.00 74.00 
C 508.33 74.00 512.67 74.00 517.00 74.00
C 512.98 73.61 508.09 73.60 504.00 74.00 Z"/>
</g>
<g fill="#010704" fill-opacity="1.00" stroke="None">
<path d="
M 517.00 74.00 
C 512.67 74.00 508.33 74.00 504.00 74.00
C 386.96 74.00 278.55 122.64 196.25 206.25 C 113.94 289.86 68.68 401.85 70.00 519.00 C 71.32 636.15 118.06 744.48 201.75 827.25 C 285.45 910.02 395.75 954.50 513.00 955.00 C 630.25 955.50 740.48 909.86 823.25 826.25 C 906.01 742.63 951.90 633.17 953.00 516.00 C 954.10 398.83 908.58 287.23 825.75 204.25 C 742.92 121.27 633.85 74.00 517.00 74.00
M 922.00 505.00 
C 922.55 510.67 922.54 517.40 922.00 523.00
C 922.00 630.88 875.66 730.71 799.25 807.25 C 722.84 883.79 616.36 926.20 508.00 924.00 C 399.64 921.80 298.22 880.22 220.75 803.25 C 143.28 726.28 101.07 623.82 101.00 515.00 C 100.93 406.18 143.21 304.54 219.75 226.75 C 296.29 148.97 397.53 106.57 506.00 105.00 C 614.47 103.43 721.05 144.38 798.25 220.75 C 875.45 297.12 922.00 396.69 922.00 505.00 Z"/>
</g>
<g fill="#FCFCF9" fill-opacity="1.00" stroke="None">
<path d="
M 922.00 523.00 
C 922.00 517.00 922.00 511.00 922.00 505.00
C 922.00 396.69 875.45 297.12 798.25 220.75 C 721.05 144.38 614.47 103.43 506.00 105.00 C 397.53 106.57 296.29 148.97 219.75 226.75 C 143.21 304.54 100.93 406.18 101.00 515.00 C 101.07 623.82 143.28 726.28 220.75 803.25 C 298.22 880.22 399.64 921.80 508.00 924.00 C 616.36 926.20 722.84 883.79 799.25 807.25 C 875.66 730.71 922.00 630.88 922.00 523.00
M 529.00 131.00 
C 567.63 134.74 615.02 141.17 650.02 155.98 C 685.03 170.78 714.46 185.63 743.70 208.30 C 772.94 230.97 794.43 251.38 817.25 280.75 C 840.06 310.13 855.96 339.31 869.98 375.02 C 883.99 410.74 894.00 454.50 895.99 495.01 C 897.98 535.52 891.30 588.31 880.07 625.07 C 868.85 661.83 853.76 694.27 833.08 725.08 C 812.41 755.90 793.31 778.43 765.25 803.25 C 737.18 828.06 712.00 844.95 677.77 861.77 C 643.54 878.59 604.46 889.29 565.00 895.00 C 525.53 900.71 467.92 897.98 429.98 889.02 C 392.03 880.07 357.01 867.36 324.25 848.75 C 291.50 830.13 267.73 812.74 240.75 786.25 C 213.77 759.76 196.13 735.25 177.08 702.92 C 158.02 670.60 144.89 635.84 136.02 597.98 C 127.16 560.11 124.72 503.64 130.33 464.33 C 135.94 425.02 146.85 385.85 163.77 351.77 C 180.69 317.70 196.69 290.52 221.75 262.75 C 246.82 234.98 268.22 214.39 299.25 194.25 C 330.28 174.10 361.60 158.25 398.67 147.67 C 435.74 137.09 487.50 126.98 529.00 131.00 Z"/>
</g>
<g fill="#020705" fill-opacity="1.00" stroke="None">
<path d="
M 529.00 131.00 
C 487.50 126.98 435.74 137.09 398.67 147.67 C 361.60 158.25 330.28 174.10 299.25 194.25 C 268.22 214.39 246.82 234.98 221.75 262.75 C 196.69 290.52 180.69 317.70 163.77 351.77 C 146.85 385.85 135.94 425.02 130.33 464.33 C 124.72 503.64 127.16 560.11 136.02 597.98 C 144.89 635.84 158.02 670.60 177.08 702.92 C 196.13 735.25 213.77 759.76 240.75 786.25 C 267.73 812.74 291.50 830.13 324.25 848.75 C 357.01 867.36 392.03 880.07 429.98 889.02 C 467.92 897.98 525.53 900.71 565.00 895.00 C 604.46 889.29 643.54 878.59 677.77 861.77 C 712.00 844.95 737.18 828.06 765.25 803.25 C 793.31 778.43 812.41 755.90 833.08 725.08 C 853.76 694.27 868.85 661.83 880.07 625.07 C 891.30 588.31 897.98 535.52 895.99 495.01 C 894.00 454.50 883.99 410.74 869.98 375.02 C 855.96 339.31 840.06 310.13 817.25 280.75 C 794.43 251.38 772.94 230.97 743.70 208.30 C 714.46 185.63 685.03 170.78 650.02 155.98 C 615.02 141.17 567.63 134.74 529.00 131.00
M 540.00 162.00 
C 576.88 165.57 620.12 174.36 653.22 189.78 C 686.33 205.19 713.79 220.14 741.08 243.92 C 768.37 267.70 787.59 288.50 807.77 318.23 C 827.95 347.96 842.14 379.38 852.98 415.02 C 863.81 450.67 869.58 503.12 866.00 542.00 C 862.43 580.88 853.39 621.15 838.07 655.07 C 822.75 689.00 806.68 714.42 783.25 742.25 C 759.81 770.08 738.96 788.76 709.25 809.25 C 679.55 829.75 648.68 844.03 612.93 854.93 C 577.17 865.82 523.88 870.39 485.00 867.00 C 446.12 863.61 406.01 853.83 371.93 839.07 C 337.84 824.31 312.05 808.16 284.25 784.75 C 256.45 761.34 237.49 740.83 216.75 711.25 C 196.01 681.66 182.47 650.50 171.02 614.98 C 159.58 579.45 154.78 526.88 157.98 487.98 C 161.17 449.07 169.77 408.31 185.77 374.77 C 201.77 341.23 216.50 314.82 240.25 287.25 C 264.00 259.67 283.88 239.95 314.25 220.25 C 344.62 200.54 375.25 185.85 411.68 175.68 C 448.11 165.50 499.17 158.05 540.00 162.00 Z"/>
</g>
<g fill="#FEFEFA" fill-opacity="1.00" stroke="None">
<path d="
M 540.00 162.00 
C 499.17 158.05 448.11 165.50 411.68 175.68 C 375.25 185.85 344.62 200.54 314.25 220.25 C 283.88 239.95 264.00 259.67 240.25 287.25 C 216.50 314.82 201.77 341.23 185.77 374.77 C 169.77 408.31 161.17 449.07 157.98 487.98 C 154.78 526.88 159.58 579.45 171.02 614.98 C 182.47 650.50 196.01 681.66 216.75 711.25 C 237.49 740.83 256.45 761.34 284.25 784.75 C 312.05 808.16 337.84 824.31 371.93 839.07 C 406.01 853.83 446.12 863.61 485.00 867.00 C 523.88 870.39 577.17 865.82 612.93 854.93 C 648.68 844.03 679.55 829.75 709.25 809.25 C 738.96 788.76 759.81 770.08 783.25 742.25 C 806.68 714.42 822.75 689.00 838.07 655.07 C 853.39 621.15 862.43 580.88 866.00 542.00 C 869.58 503.12 863.81 450.67 852.98 415.02 C 842.14 379.38 827.95 347.96 807.77 318.23 C 787.59 288.50 768.37 267.70 741.08 243.92 C 713.79 220.14 686.33 205.19 653.22 189.78 C 620.12 174.36 576.88 165.57 540.00 162.00
M 623.00 293.00 
C 623.00 308.50 622.17 325.32 624.00 340.00
C 631.42 339.38 636.85 328.55 643.25 324.25 C 649.65 319.95 655.32 311.55 660.25 305.25 C 665.18 298.96 668.94 290.47 672.92 282.92 C 676.91 275.38 677.09 264.60 688.03 262.03 C 698.97 259.45 698.16 275.37 694.08 283.08 C 689.99 290.79 686.61 299.58 681.75 306.75 C 676.88 313.91 672.38 320.28 666.75 326.75 C 661.12 333.22 655.52 339.65 648.75 344.75 C 641.99 349.85 636.75 355.62 630.75 361.75 C 624.75 367.88 618.91 374.80 615.70 382.70 C 612.48 390.59 607.76 397.93 603.25 405.25 C 598.74 412.56 593.92 420.01 589.08 427.08 C 584.24 434.15 578.94 440.10 574.25 447.25 C 569.55 454.39 564.35 461.24 559.25 468.25 C 554.15 475.26 547.84 482.51 546.00 491.00
C 560.59 490.83 575.79 483.79 589.22 480.22 C 602.65 476.65 611.14 466.51 619.30 456.30 C 627.46 446.10 636.50 437.05 647.25 430.25 C 657.99 423.44 672.12 419.40 678.92 407.92 C 685.72 396.44 689.57 381.95 695.92 370.92 C 702.28 359.89 708.23 346.88 717.75 338.75 C 727.28 330.63 731.97 313.51 746.67 313.67 C 761.37 313.83 748.44 337.60 739.75 344.75 C 731.06 351.90 723.22 365.48 716.25 375.25 C 709.27 385.01 704.90 401.93 700.00 413.00
C 712.50 410.52 728.34 409.34 739.69 403.69 C 751.05 398.05 761.94 396.30 770.25 385.25 C 778.55 374.19 800.92 376.78 794.08 391.08 C 787.23 405.37 777.31 404.53 766.92 412.92 C 756.53 421.32 744.61 423.25 732.33 427.33 C 720.04 431.41 702.94 432.57 690.33 435.33 C 677.72 438.09 665.94 442.40 655.30 449.30 C 644.67 456.21 639.33 466.51 632.00 476.00
C 635.42 477.78 640.82 477.00 645.00 477.00
C 648.67 477.00 652.33 477.00 656.00 477.00
C 669.30 477.00 674.34 472.14 687.22 469.22 C 700.11 466.30 699.24 482.95 688.77 487.77 C 678.30 492.59 670.78 496.19 659.00 497.00 C 647.21 497.81 632.89 497.94 621.00 498.00 C 609.11 498.06 598.01 500.62 586.98 502.98 C 575.94 505.33 566.76 509.07 556.00 512.00
C 554.02 524.57 572.77 521.21 583.07 524.93 C 593.38 528.65 607.03 529.87 618.02 532.98 C 629.02 536.08 645.24 535.74 656.22 533.22 C 667.21 530.70 677.87 525.83 688.07 522.07 C 698.27 518.32 708.93 515.34 718.08 510.08 C 727.23 504.81 733.49 496.74 740.30 489.30 C 747.11 481.86 753.13 474.17 760.25 467.25 C 767.36 460.33 780.09 454.26 789.01 453.01 C 797.92 451.75 818.59 441.92 820.99 455.01 C 823.40 468.10 802.79 469.51 793.98 470.98 C 785.17 472.44 773.69 478.73 767.75 486.75 C 761.81 494.78 755.11 502.99 748.00 510.00
C 757.82 511.55 768.84 514.83 778.68 517.32 C 788.52 519.81 799.92 524.63 810.00 525.00 C 820.09 525.37 831.96 536.34 820.77 542.77 C 809.58 549.20 798.60 543.12 787.78 541.22 C 776.96 539.32 768.80 534.60 757.98 532.02 C 747.15 529.45 733.32 531.44 722.78 533.78 C 712.24 536.12 702.08 538.23 692.00 542.00
C 699.99 549.37 710.26 555.04 718.25 562.75 C 726.24 570.47 736.05 576.66 744.08 583.92 C 752.12 591.18 766.58 597.05 776.01 598.99 C 785.44 600.93 811.13 599.89 808.00 614.00 C 804.87 628.11 780.75 621.41 770.93 620.07 C 761.11 618.74 747.11 612.04 738.30 605.70 C 729.49 599.36 720.92 592.26 712.30 584.70 C 703.68 577.13 695.89 570.65 685.77 564.23 C 675.66 557.81 659.53 554.65 647.00 558.00
C 651.90 567.03 660.82 573.23 667.25 580.75 C 673.67 588.28 688.99 589.34 688.99 602.01 C 688.99 614.68 669.75 607.19 662.77 601.23 C 655.80 595.27 645.67 589.74 639.25 581.75 C 632.82 573.76 627.20 565.89 618.25 559.75 C 609.31 553.60 598.96 549.98 587.93 547.07 C 576.89 544.17 562.23 540.50 550.00 541.00
C 548.14 553.33 555.99 564.36 562.25 573.75 C 568.52 583.14 575.98 590.35 585.25 596.75 C 594.52 603.16 605.18 607.24 615.23 612.77 C 625.27 618.30 634.73 623.04 644.70 629.30 C 654.67 635.57 667.30 639.53 679.00 641.00 C 690.70 642.47 708.60 643.07 719.07 646.93 C 729.55 650.79 740.92 656.39 748.25 663.75 C 755.58 671.12 773.05 672.75 772.99 685.01 C 772.93 697.27 749.30 691.13 742.25 683.75 C 735.21 676.36 723.37 670.88 712.98 667.02 C 702.58 663.17 684.68 662.31 673.00 661.00
C 679.27 670.86 683.89 684.83 690.75 694.25 C 697.62 703.66 702.08 717.76 714.70 721.30 C 727.32 724.85 734.97 748.06 720.00 747.00 C 705.02 745.93 700.17 733.81 689.75 726.25 C 679.34 718.69 675.59 706.18 669.08 695.92 C 662.56 685.67 658.11 673.46 650.25 663.75 C 642.38 654.05 633.44 646.54 622.77 640.23 C 612.10 633.92 599.97 628.04 589.00 622.00
C 591.28 633.24 592.43 647.61 593.00 659.00 C 593.57 670.39 596.29 681.88 602.25 690.75 C 608.22 699.62 615.77 703.98 622.75 711.25 C 629.73 718.52 636.63 724.85 642.25 732.75 C 647.86 740.66 654.76 750.10 657.92 759.08 C 661.09 768.05 668.48 782.81 661.69 791.69 C 654.91 800.58 644.61 783.92 643.07 775.93 C 641.54 767.93 634.89 755.80 629.08 748.92 C 623.28 742.03 616.82 733.40 610.25 726.75 C 603.67 720.10 594.24 713.38 588.00 707.00
C 585.76 717.12 587.46 732.89 588.93 742.07 C 590.40 751.25 601.76 762.83 597.00 772.00 C 592.24 781.17 577.83 769.20 575.70 761.31 C 573.56 753.41 566.05 742.23 567.01 731.99 C 567.96 721.75 568.45 706.88 569.00 696.00 C 569.55 685.12 571.95 671.89 572.00 661.00 C 572.05 650.11 570.72 636.71 567.67 627.33 C 564.62 617.95 559.91 608.42 555.08 600.92 C 550.25 593.43 545.35 583.43 540.08 577.92 C 534.81 572.41 528.81 557.46 520.78 560.78 C 512.75 564.10 515.42 582.11 513.22 591.22 C 511.03 600.33 510.84 615.81 511.98 626.02 C 513.12 636.24 515.26 647.68 517.98 658.02 C 520.69 668.37 522.93 679.61 523.00 691.00 C 523.07 702.39 522.11 718.43 523.78 729.22 C 525.44 740.02 529.07 748.13 533.31 757.69 C 537.54 767.26 539.77 774.17 545.92 783.08 C 552.08 791.98 551.73 799.96 556.99 810.01 C 562.25 820.06 554.78 834.94 544.25 826.75 C 533.73 818.55 539.18 809.03 532.68 800.32 C 526.18 791.61 524.74 784.19 519.70 775.31 C 514.65 766.42 512.36 757.64 508.68 748.32
C 498.67 757.96 500.28 771.27 493.67 782.67 C 487.07 794.08 499.87 814.09 486.75 822.75 C 473.63 831.41 468.83 806.57 472.00 795.00 C 475.17 783.42 475.38 766.06 481.78 754.78 C 488.17 743.49 491.82 733.67 497.92 721.92 C 504.03 710.18 505.01 693.46 503.00 680.00 C 500.99 666.53 495.69 653.36 493.00 640.00
C 484.88 647.51 478.68 655.98 471.25 665.25 C 463.81 674.51 458.78 683.96 454.68 695.68 C 450.57 707.39 447.98 721.16 446.22 734.22 C 444.47 747.28 443.54 760.37 438.02 773.02 C 432.51 785.68 432.31 792.91 421.75 804.75 C 411.20 816.60 400.48 800.84 408.93 788.93 C 417.37 777.02 418.63 768.70 422.93 755.93 C 427.22 743.16 427.73 729.21 429.93 715.93 C 432.12 702.65 433.95 689.44 439.00 677.00
C 427.48 680.12 414.90 687.06 407.25 697.25 C 399.60 707.44 393.61 720.35 389.08 732.08 C 384.54 743.81 374.12 753.87 368.23 764.23 C 362.34 774.59 339.36 785.77 339.00 771.00 C 338.65 756.23 355.38 751.63 361.25 740.25 C 367.12 728.87 374.92 717.25 379.31 705.31 C 383.69 693.36 392.34 683.42 401.75 674.75 C 411.17 666.08 422.74 660.79 434.23 655.23 C 445.72 649.67 458.11 645.49 467.25 635.25 C 476.38 625.00 484.22 616.41 487.93 602.93 C 491.63 589.44 495.89 571.24 491.00 557.00
C 481.04 559.24 473.40 566.87 466.25 574.25 C 459.10 581.63 452.42 588.43 444.30 594.30 C 436.19 600.18 426.35 605.02 417.31 609.31 C 408.26 613.59 398.96 618.28 392.25 626.25 C 385.53 634.22 382.23 645.29 376.70 653.70 C 371.16 662.10 365.62 670.61 358.75 677.75 C 351.88 684.90 344.56 692.56 336.75 697.75 C 328.94 702.95 319.44 711.16 310.92 713.92 C 302.41 716.69 291.63 731.63 282.00 727.00 C 272.37 722.37 285.79 704.64 293.25 701.25 C 300.71 697.85 311.70 690.40 319.25 685.25 C 326.79 680.10 335.17 673.16 341.75 665.75 C 348.33 658.35 355.47 651.40 360.75 642.75 C 366.04 634.11 370.27 622.43 374.00 613.00
C 362.62 612.64 347.13 612.90 336.99 615.99 C 326.86 619.09 318.64 624.09 310.31 629.31 C 301.97 634.52 295.03 641.03 287.75 646.75 C 280.47 652.48 269.96 657.56 262.92 661.92 C 255.89 666.29 236.06 673.12 235.01 661.99 C 233.96 650.86 248.18 647.43 255.23 642.23 C 262.28 637.03 272.67 631.93 280.08 626.08 C 287.49 620.23 295.60 614.86 304.08 610.08 C 312.56 605.30 321.43 599.20 331.67 597.67 C 341.92 596.15 355.97 591.66 367.00 593.00 C 378.03 594.34 393.23 594.09 403.22 591.22 C 413.21 588.36 422.91 583.69 430.70 578.70 C 438.48 573.70 447.08 564.82 451.75 558.75 C 456.42 552.69 470.85 538.37 459.97 537.03 C 449.10 535.68 438.44 544.12 426.98 543.98 C 415.51 543.83 401.10 547.47 389.00 546.00 C 376.90 544.53 364.22 547.70 353.32 550.32 C 342.43 552.94 331.78 556.32 321.00 558.00 C 310.22 559.67 300.07 563.33 291.75 569.75 C 283.43 576.17 275.73 579.99 267.25 585.25 C 258.78 590.52 248.48 595.39 238.99 596.99 C 229.50 598.59 214.81 605.19 206.77 595.23 C 198.73 585.27 216.87 577.36 226.02 578.02 C 235.18 578.69 247.58 571.59 256.08 568.08 C 264.58 564.56 272.30 556.95 280.25 552.25
C 270.15 546.07 262.88 538.79 251.75 532.25 C 240.63 525.70 228.79 518.80 214.00 521.00 C 199.21 523.20 189.92 503.84 206.08 500.08 C 222.23 496.31 234.15 500.58 247.08 505.92 C 260.00 511.27 265.17 518.72 276.70 525.30 C 288.23 531.89 299.16 537.86 313.00 538.00 C 326.84 538.14 340.34 533.61 353.00 529.00
C 340.82 525.54 333.68 518.62 320.77 515.23 C 307.87 511.83 301.20 492.07 317.00 494.00 C 332.80 495.93 338.17 502.03 351.23 506.77 C 364.29 511.52 370.88 517.07 383.68 521.32 C 396.48 525.57 411.52 525.04 425.00 523.00 C 438.48 520.96 450.93 515.76 465.00 516.00
C 462.85 503.95 449.29 502.04 438.93 498.07 C 428.56 494.10 415.16 491.70 403.99 489.01 C 392.82 486.31 381.70 482.14 370.77 478.23 C 359.84 474.32 351.37 468.38 339.93 465.07 C 328.48 461.76 311.24 462.22 299.00 464.00 C 286.76 465.78 271.04 463.30 259.78 461.22 C 248.52 459.14 236.58 452.56 226.92 450.08 C 217.27 447.59 201.53 434.96 211.75 426.75 C 221.98 418.55 233.32 433.43 244.02 434.98 C 254.73 436.52 265.84 445.08 278.22 444.78 C 290.60 444.47 308.46 446.13 320.00 442.00
C 313.25 435.33 309.46 428.24 303.23 420.77 C 297.00 413.30 290.23 408.89 283.30 401.70 C 276.38 394.50 267.79 392.76 259.31 386.69 C 250.82 380.63 243.04 381.02 238.08 368.92 C 233.11 356.82 250.78 356.63 259.08 362.92 C 267.37 369.22 276.00 371.24 283.75 377.25 C 291.49 383.27 297.72 387.72 304.75 394.25 C 311.78 400.77 317.67 406.75 323.75 414.25 C 329.84 421.74 334.53 428.45 341.25 435.75 C 347.97 443.05 354.74 448.10 363.69 452.31 C 372.65 456.51 382.35 459.73 392.02 462.98 C 401.70 466.23 412.51 468.90 422.67 471.33 C 432.84 473.76 443.79 476.38 454.00 479.00
C 448.85 470.34 441.56 462.51 436.25 453.75 C 430.94 444.99 423.57 437.97 415.75 431.25 C 407.94 424.52 400.81 417.62 392.92 411.08 C 385.02 404.55 378.87 396.07 373.23 387.77 C 367.59 379.47 362.00 371.10 353.75 364.25 C 345.50 357.39 333.93 355.56 324.78 350.22 C 315.62 344.89 306.10 341.84 298.30 333.70 C 290.51 325.56 281.37 323.49 279.07 309.93 C 276.77 296.36 295.56 300.72 302.25 309.75 C 308.94 318.79 317.97 321.84 326.25 328.75 C 334.52 335.67 347.29 338.09 357.00 342.00
C 353.22 331.14 352.76 318.81 349.02 307.98 C 345.28 297.14 346.36 285.11 338.23 275.77 C 330.09 266.43 340.43 248.34 350.08 256.92 C 359.73 265.50 359.54 275.42 363.93 286.07 C 368.31 296.73 368.83 309.12 371.93 320.07 C 375.03 331.03 376.38 344.24 380.32 354.68 C 384.26 365.12 388.66 374.24 394.77 383.23 C 400.88 392.22 409.31 396.81 417.00 404.00
C 414.88 394.15 415.36 375.40 411.07 366.93 C 406.79 358.45 402.53 336.28 415.67 338.33 C 428.81 340.39 426.80 357.63 430.98 367.02 C 435.15 376.42 434.41 394.47 436.99 405.01 C 439.57 415.55 444.19 426.99 449.92 436.08 C 455.66 445.16 463.39 451.15 469.25 459.75 C 475.11 468.36 493.96 476.80 492.02 462.98 C 490.08 449.15 488.49 437.01 487.00 424.00 C 485.51 410.99 483.39 398.18 480.67 386.33 C 477.95 374.47 473.22 364.79 468.68 354.32 C 464.14 343.86 459.30 335.48 454.08 325.92 C 448.85 316.37 442.52 308.63 435.75 300.25 C 428.98 291.87 423.07 284.52 415.25 276.75 C 407.42 268.99 404.62 258.06 399.02 248.98 C 393.43 239.89 394.05 218.53 407.08 224.92 C 420.10 231.32 414.27 244.49 421.92 253.08 C 429.57 261.68 434.01 269.30 441.75 277.25 C 449.50 285.19 455.47 292.50 461.75 301.25 C 468.04 309.99 472.95 319.35 478.31 328.70 C 483.66 338.04 488.93 347.99 493.00 358.00
C 496.67 347.90 497.48 336.28 499.33 325.33 C 501.18 314.38 498.85 300.85 494.69 291.31 C 490.54 281.76 486.24 273.74 482.22 264.78 C 478.21 255.81 473.62 244.51 471.22 235.78 C 468.83 227.05 463.14 209.32 474.08 205.08 C 485.02 200.85 486.98 218.84 489.33 226.67 C 491.67 234.50 496.11 247.82 499.92 256.08 C 503.74 264.33 508.56 274.83 514.00 282.00
C 520.51 270.29 525.12 265.79 530.77 252.77 C 536.42 239.76 536.94 231.21 539.00 215.00 C 541.06 198.79 560.14 205.58 557.00 221.00 C 553.86 236.42 554.43 246.22 549.02 259.02 C 543.62 271.83 539.96 278.11 533.23 289.23 C 526.50 300.35 523.18 310.24 521.00 323.00 C 518.83 335.77 516.10 348.41 513.22 361.22 C 510.34 374.03 507.38 387.37 507.00 401.00 C 506.63 414.64 507.58 431.32 510.00 444.00 C 512.41 456.69 514.19 469.97 529.00 472.00
C 536.27 464.29 540.50 457.99 545.92 448.92 C 551.35 439.86 556.23 430.28 557.00 419.00 C 557.76 407.71 553.42 393.98 553.22 382.78 C 553.02 371.57 549.61 353.88 552.00 343.00 C 554.39 332.12 550.86 318.35 559.25 310.25 C 567.65 302.16 576.31 323.22 572.67 332.67 C 569.03 342.12 571.55 358.96 572.00 370.00 C 572.45 381.05 575.78 395.50 576.00 407.00
C 585.96 397.80 590.77 389.18 596.77 375.77 C 602.77 362.36 602.73 344.93 603.00 329.00 C 603.27 313.07 601.94 294.23 604.00 278.00 C 606.06 261.77 607.65 251.78 614.92 235.92 C 622.19 220.06 639.91 234.08 631.68 248.68 C 623.44 263.28 624.81 276.92 623.00 293.00 Z"/>
</g>
<g fill="#030806" fill-opacity="1.00" stroke="None">
<path d="
M 656.00 477.00 
C 652.92 477.30 648.75 478.00 645.00 478.00
C 640.74 478.00 631.71 479.46 632.00 476.00
C 639.33 466.51 644.67 456.21 655.30 449.30 C 665.94 442.40 677.72 438.09 690.33 435.33 C 702.94 432.57 720.04 431.41 732.33 427.33 C 744.61 423.25 756.53 421.32 766.92 412.92 C 777.31 404.53 787.23 405.37 794.08 391.08 C 800.92 376.78 778.55 374.19 770.25 385.25 C 761.94 396.30 751.05 398.05 739.69 403.69 C 728.34 409.34 712.50 410.52 700.00 413.00
C 704.90 401.93 709.27 385.01 716.25 375.25 C 723.22 365.48 731.06 351.90 739.75 344.75 C 748.44 337.60 761.37 313.83 746.67 313.67 C 731.97 313.51 727.28 330.63 717.75 338.75 C 708.23 346.88 702.28 359.89 695.92 370.92 C 689.57 381.95 685.72 396.44 678.92 407.92 C 672.12 419.40 657.99 423.44 647.25 430.25 C 636.50 437.05 627.46 446.10 619.30 456.30 C 611.14 466.51 602.65 476.65 589.22 480.22 C 575.79 483.79 560.59 490.83 546.00 491.00
C 547.84 482.51 554.15 475.26 559.25 468.25 C 564.35 461.24 569.55 454.39 574.25 447.25 C 578.94 440.10 584.24 434.15 589.08 427.08 C 593.92 420.01 598.74 412.56 603.25 405.25 C 607.76 397.93 612.48 390.59 615.70 382.70 C 618.91 374.80 624.75 367.88 630.75 361.75 C 636.75 355.62 641.99 349.85 648.75 344.75 C 655.52 339.65 661.12 333.22 666.75 326.75 C 672.38 320.28 676.88 313.91 681.75 306.75 C 686.61 299.58 689.99 290.79 694.08 283.08 C 698.16 275.37 698.97 259.45 688.03 262.03 C 677.09 264.60 676.91 275.38 672.92 282.92 C 668.94 290.47 665.18 298.96 660.25 305.25 C 655.32 311.55 649.65 319.95 643.25 324.25 C 636.85 328.55 631.42 339.38 624.00 340.00
C 620.18 340.32 622.59 331.79 622.00 327.00 C 621.41 322.21 622.61 315.22 622.00 310.00 C 621.39 304.78 622.56 297.56 623.00 293.00
C 624.81 276.92 623.44 263.28 631.68 248.68 C 639.91 234.08 622.19 220.06 614.92 235.92 C 607.65 251.78 606.06 261.77 604.00 278.00 C 601.94 294.23 603.27 313.07 603.00 329.00 C 602.73 344.93 602.77 362.36 596.77 375.77 C 590.77 389.18 585.96 397.80 576.00 407.00
C 575.78 395.50 572.45 381.05 572.00 370.00 C 571.55 358.96 569.03 342.12 572.67 332.67 C 576.31 323.22 567.65 302.16 559.25 310.25 C 550.86 318.35 554.39 332.12 552.00 343.00 C 549.61 353.88 553.02 371.57 553.22 382.78 C 553.42 393.98 557.76 407.71 557.00 419.00 C 556.23 430.28 551.35 439.86 545.92 448.92 C 540.50 457.99 536.27 464.29 529.00 472.00
C 514.19 469.97 512.41 456.69 510.00 444.00 C 507.58 431.32 506.63 414.64 507.00 401.00 C 507.38 387.37 510.34 374.03 513.22 361.22 C 516.10 348.41 518.83 335.77 521.00 323.00 C 523.18 310.24 526.50 300.35 533.23 289.23 C 539.96 278.11 543.62 271.83 549.02 259.02 C 554.43 246.22 553.86 236.42 557.00 221.00 C 560.14 205.58 541.06 198.79 539.00 215.00 C 536.94 231.21 536.42 239.76 530.77 252.77 C 525.12 265.79 520.51 270.29 514.00 282.00
C 508.56 274.83 503.74 264.33 499.92 256.08 C 496.11 247.82 491.67 234.50 489.33 226.67 C 486.98 218.84 485.02 200.85 474.08 205.08 C 463.14 209.32 468.83 227.05 471.22 235.78 C 473.62 244.51 478.21 255.81 482.22 264.78 C 486.24 273.74 490.54 281.76 494.69 291.31 C 498.85 300.85 501.18 314.38 499.33 325.33 C 497.48 336.28 496.67 347.90 493.00 358.00
C 488.93 347.99 483.66 338.04 478.31 328.70 C 472.95 319.35 468.04 309.99 461.75 301.25 C 455.47 292.50 449.50 285.19 441.75 277.25 C 434.01 269.30 429.57 261.68 421.92 253.08 C 414.27 244.49 420.10 231.32 407.08 224.92 C 394.05 218.53 393.43 239.89 399.02 248.98 C 404.62 258.06 407.42 268.99 415.25 276.75 C 423.07 284.52 428.98 291.87 435.75 300.25 C 442.52 308.63 448.85 316.37 454.08 325.92 C 459.30 335.48 464.14 343.86 468.68 354.32 C 473.22 364.79 477.95 374.47 480.67 386.33 C 483.39 398.18 485.51 410.99 487.00 424.00 C 488.49 437.01 490.08 449.15 492.02 462.98 C 493.96 476.80 475.11 468.36 469.25 459.75 C 463.39 451.15 455.66 445.16 449.92 436.08 C 444.19 426.99 439.57 415.55 436.99 405.01 C 434.41 394.47 435.15 376.42 430.98 367.02 C 426.80 357.63 428.81 340.39 415.67 338.33 C 402.53 336.28 406.79 358.45 411.07 366.93 C 415.36 375.40 414.88 394.15 417.00 404.00
C 409.31 396.81 400.88 392.22 394.77 383.23 C 388.66 374.24 384.26 365.12 380.32 354.68 C 376.38 344.24 375.03 331.03 371.93 320.07 C 368.83 309.12 368.31 296.73 363.93 286.07 C 359.54 275.42 359.73 265.50 350.08 256.92 C 340.43 248.34 330.09 266.43 338.23 275.77 C 346.36 285.11 345.28 297.14 349.02 307.98 C 352.76 318.81 353.22 331.14 357.00 342.00
C 347.29 338.09 334.52 335.67 326.25 328.75 C 317.97 321.84 308.94 318.79 302.25 309.75 C 295.56 300.72 276.77 296.36 279.07 309.93 C 281.37 323.49 290.51 325.56 298.30 333.70 C 306.10 341.84 315.62 344.89 324.78 350.22 C 333.93 355.56 345.50 357.39 353.75 364.25 C 362.00 371.10 367.59 379.47 373.23 387.77 C 378.87 396.07 385.02 404.55 392.92 411.08 C 400.81 417.62 407.94 424.52 415.75 431.25 C 423.57 437.97 430.94 444.99 436.25 453.75 C 441.56 462.51 448.85 470.34 454.00 479.00
C 443.79 476.38 432.84 473.76 422.67 471.33 C 412.51 468.90 401.70 466.23 392.02 462.98 C 382.35 459.73 372.65 456.51 363.69 452.31 C 354.74 448.10 347.97 443.05 341.25 435.75 C 334.53 428.45 329.84 421.74 323.75 414.25 C 317.67 406.75 311.78 400.77 304.75 394.25 C 297.72 387.72 291.49 383.27 283.75 377.25 C 276.00 371.24 267.37 369.22 259.08 362.92 C 250.78 356.63 233.11 356.82 238.08 368.92 C 243.04 381.02 250.82 380.63 259.31 386.69 C 267.79 392.76 276.38 394.50 283.30 401.70 C 290.23 408.89 297.00 413.30 303.23 420.77 C 309.46 428.24 313.25 435.33 320.00 442.00
C 308.46 446.13 290.60 444.47 278.22 444.78 C 265.84 445.08 254.73 436.52 244.02 434.98 C 233.32 433.43 221.98 418.55 211.75 426.75 C 201.53 434.96 217.27 447.59 226.92 450.08 C 236.58 452.56 248.52 459.14 259.78 461.22 C 271.04 463.30 286.76 465.78 299.00 464.00 C 311.24 462.22 328.48 461.76 339.93 465.07 C 351.37 468.38 359.84 474.32 370.77 478.23 C 381.70 482.14 392.82 486.31 403.99 489.01 C 415.16 491.70 428.56 494.10 438.93 498.07 C 449.29 502.04 462.85 503.95 465.00 516.00
C 450.93 515.76 438.48 520.96 425.00 523.00 C 411.52 525.04 396.48 525.57 383.68 521.32 C 370.88 517.07 364.29 511.52 351.23 506.77 C 338.17 502.03 332.80 495.93 317.00 494.00 C 301.20 492.07 307.87 511.83 320.77 515.23 C 333.68 518.62 340.82 525.54 353.00 529.00
C 340.34 533.61 326.84 538.14 313.00 538.00 C 299.16 537.86 288.23 531.89 276.70 525.30 C 265.17 518.72 260.00 511.27 247.08 505.92 C 234.15 500.58 222.23 496.31 206.08 500.08 C 189.92 503.84 199.21 523.20 214.00 521.00 C 228.79 518.80 240.63 525.70 251.75 532.25 C 262.88 538.79 270.15 546.07 281.00 552.00
C 272.30 556.95 264.58 564.56 256.08 568.08 C 247.58 571.59 235.18 578.69 226.02 578.02 C 216.87 577.36 198.73 585.27 206.77 595.23 C 214.81 605.19 229.50 598.59 238.99 596.99 C 248.48 595.39 258.78 590.52 267.25 585.25 C 275.73 579.99 283.43 576.17 291.75 569.75 C 300.07 563.33 310.22 559.67 321.00 558.00 C 331.78 556.32 342.43 552.94 353.32 550.32 C 364.22 547.70 376.90 544.53 389.00 546.00 C 401.10 547.47 415.51 543.83 426.98 543.98 C 438.44 544.12 449.10 535.68 459.97 537.03 C 470.85 538.37 456.42 552.69 451.75 558.75 C 447.08 564.82 438.48 573.70 430.70 578.70 C 422.91 583.69 413.21 588.36 403.22 591.22 C 393.23 594.09 378.03 594.34 367.00 593.00 C 355.97 591.66 341.92 596.15 331.67 597.67 C 321.43 599.20 312.56 605.30 304.08 610.08 C 295.60 614.86 287.49 620.23 280.08 626.08 C 272.67 631.93 262.28 637.03 255.23 642.23 C 248.18 647.43 233.96 650.86 235.01 661.99 C 236.06 673.12 255.89 666.29 262.92 661.92 C 269.96 657.56 280.47 652.48 287.75 646.75 C 295.03 641.03 301.97 634.52 310.31 629.31 C 318.64 624.09 326.86 619.09 336.99 615.99 C 347.13 612.90 362.62 612.64 374.00 613.00
C 370.27 622.43 366.04 634.11 360.75 642.75 C 355.47 651.40 348.33 658.35 341.75 665.75 C 335.17 673.16 326.79 680.10 319.25 685.25 C 311.70 690.40 300.71 697.85 293.25 701.25 C 285.79 704.64 272.37 722.37 282.00 727.00 C 291.63 731.63 302.41 716.69 310.92 713.92 C 319.44 711.16 328.94 702.95 336.75 697.75 C 344.56 692.56 351.88 684.90 358.75 677.75 C 365.62 670.61 371.16 662.10 376.70 653.70 C 382.23 645.29 385.53 634.22 392.25 626.25 C 398.96 618.28 408.26 613.59 417.31 609.31 C 426.35 605.02 436.19 600.18 444.30 594.30 C 452.42 588.43 459.10 581.63 466.25 574.25 C 473.40 566.87 481.04 559.24 491.00 557.00
C 495.89 571.24 491.63 589.44 487.93 602.93 C 484.22 616.41 476.38 625.00 467.25 635.25 C 458.11 645.49 445.72 649.67 434.23 655.23 C 422.74 660.79 411.17 666.08 401.75 674.75 C 392.34 683.42 383.69 693.36 379.31 705.31 C 374.92 717.25 367.12 728.87 361.25 740.25 C 355.38 751.63 338.65 756.23 339.00 771.00 C 339.36 785.77 362.34 774.59 368.23 764.23 C 374.12 753.87 384.54 743.81 389.08 732.08 C 393.61 720.35 399.60 707.44 407.25 697.25 C 414.90 687.06 427.48 680.12 439.00 677.00
C 433.95 689.44 432.12 702.65 429.93 715.93 C 427.73 729.21 427.22 743.16 422.93 755.93 C 418.63 768.70 417.37 777.02 408.93 788.93 C 400.48 800.84 411.20 816.60 421.75 804.75 C 432.31 792.91 432.51 785.68 438.02 773.02 C 443.54 760.37 444.47 747.28 446.22 734.22 C 447.98 721.16 450.57 707.39 454.68 695.68 C 458.78 683.96 463.81 674.51 471.25 665.25 C 478.68 655.98 484.88 647.51 493.00 640.00
C 495.69 653.36 500.99 666.53 503.00 680.00 C 505.01 693.46 504.03 710.18 497.92 721.92 C 491.82 733.67 488.17 743.49 481.78 754.78 C 475.38 766.06 475.17 783.42 472.00 795.00 C 468.83 806.57 473.63 831.41 486.75 822.75 C 499.87 814.09 487.07 794.08 493.67 782.67 C 500.28 771.27 498.67 757.96 508.00 748.00
C 512.36 757.64 514.65 766.42 519.70 775.31 C 524.74 784.19 526.18 791.61 532.68 800.32 C 539.18 809.03 533.73 818.55 544.25 826.75 C 554.78 834.94 562.25 820.06 556.99 810.01 C 551.73 799.96 552.08 791.98 545.92 783.08 C 539.77 774.17 537.54 767.26 533.31 757.69 C 529.07 748.13 525.44 740.02 523.78 729.22 C 522.11 718.43 523.07 702.39 523.00 691.00 C 522.93 679.61 520.69 668.37 517.98 658.02 C 515.26 647.68 513.12 636.24 511.98 626.02 C 510.84 615.81 511.03 600.33 513.22 591.22 C 515.42 582.11 512.75 564.10 520.78 560.78 C 528.81 557.46 534.81 572.41 540.08 577.92 C 545.35 583.43 550.25 593.43 555.08 600.92 C 559.91 608.42 564.62 617.95 567.67 627.33 C 570.72 636.71 572.05 650.11 572.00 661.00 C 571.95 671.89 569.55 685.12 569.00 696.00 C 568.45 706.88 567.96 721.75 567.01 731.99 C 566.05 742.23 573.56 753.41 575.70 761.31 C 577.83 769.20 592.24 781.17 597.00 772.00 C 601.76 762.83 590.40 751.25 588.93 742.07 C 587.46 732.89 585.76 717.12 588.00 707.00
C 594.24 713.38 603.67 720.10 610.25 726.75 C 616.82 733.40 623.28 742.03 629.08 748.92 C 634.89 755.80 641.54 767.93 643.07 775.93 C 644.61 783.92 654.91 800.58 661.69 791.69 C 668.48 782.81 661.09 768.05 657.92 759.08 C 654.76 750.10 647.86 740.66 642.25 732.75 C 636.63 724.85 629.73 718.52 622.75 711.25 C 615.77 703.98 608.22 699.62 602.25 690.75 C 596.29 681.88 593.57 670.39 593.00 659.00 C 592.43 647.61 591.28 633.24 589.00 622.00
C 599.97 628.04 612.10 633.92 622.77 640.23 C 633.44 646.54 642.38 654.05 650.25 663.75 C 658.11 673.46 662.56 685.67 669.08 695.92 C 675.59 706.18 679.34 718.69 689.75 726.25 C 700.17 733.81 705.02 745.93 720.00 747.00 C 734.97 748.06 727.32 724.85 714.70 721.30 C 702.08 717.76 697.62 703.66 690.75 694.25 C 683.89 684.83 679.27 670.86 673.00 661.00
C 684.68 662.31 702.58 663.17 712.98 667.02 C 723.37 670.88 735.21 676.36 742.25 683.75 C 749.30 691.13 772.93 697.27 772.99 685.01 C 773.05 672.75 755.58 671.12 748.25 663.75 C 740.92 656.39 729.55 650.79 719.07 646.93 C 708.60 643.07 690.70 642.47 679.00 641.00 C 667.30 639.53 654.67 635.57 644.70 629.30 C 634.73 623.04 625.27 618.30 615.23 612.77 C 605.18 607.24 594.52 603.16 585.25 596.75 C 575.98 590.35 568.52 583.14 562.25 573.75 C 555.99 564.36 548.14 553.33 550.00 541.00
C 562.23 540.50 576.89 544.17 587.93 547.07 C 598.96 549.98 609.31 553.60 618.25 559.75 C 627.20 565.89 632.82 573.76 639.25 581.75 C 645.67 589.74 655.80 595.27 662.77 601.23 C 669.75 607.19 688.99 614.68 688.99 602.01 C 688.99 589.34 673.67 588.28 667.25 580.75 C 660.82 573.23 651.90 567.03 647.00 558.00
C 659.53 554.65 675.66 557.81 685.77 564.23 C 695.89 570.65 703.68 577.13 712.30 584.70 C 720.92 592.26 729.49 599.36 738.30 605.70 C 747.11 612.04 761.11 618.74 770.93 620.07 C 780.75 621.41 804.87 628.11 808.00 614.00 C 811.13 599.89 785.44 600.93 776.01 598.99 C 766.58 597.05 752.12 591.18 744.08 583.92 C 736.05 576.66 726.24 570.47 718.25 562.75 C 710.26 555.04 699.99 549.37 692.00 542.00
C 702.08 538.23 712.24 536.12 722.78 533.78 C 733.32 531.44 747.15 529.45 757.98 532.02 C 768.80 534.60 776.96 539.32 787.78 541.22 C 798.60 543.12 809.58 549.20 820.77 542.77 C 831.96 536.34 820.09 525.37 810.00 525.00 C 799.92 524.63 788.52 519.81 778.68 517.32 C 768.84 514.83 757.82 511.55 748.00 510.00
C 755.11 502.99 761.81 494.78 767.75 486.75 C 773.69 478.73 785.17 472.44 793.98 470.98 C 802.79 469.51 823.40 468.10 820.99 455.01 C 818.59 441.92 797.92 451.75 789.01 453.01 C 780.09 454.26 767.36 460.33 760.25 467.25 C 753.13 474.17 747.11 481.86 740.30 489.30 C 733.49 496.74 727.23 504.81 718.08 510.08 C 708.93 515.34 698.27 518.32 688.07 522.07 C 677.87 525.83 667.21 530.70 656.22 533.22 C 645.24 535.74 629.02 536.08 618.02 532.98 C 607.03 529.87 593.38 528.65 583.07 524.93 C 572.77 521.21 554.02 524.57 556.00 512.00
C 566.76 509.07 575.94 505.33 586.98 502.98 C 598.01 500.62 609.11 498.06 621.00 498.00 C 632.89 497.94 647.21 497.81 659.00 497.00 C 670.78 496.19 678.30 492.59 688.77 487.77 C 699.24 482.95 700.11 466.30 687.22 469.22 C 674.34 472.14 669.30 477.00 656.00 477.00 Z"/>
</g>
<g fill="#858984" fill-opacity="1.00" stroke="None">
<path d="
M 624.00 340.00 
C 622.17 325.32 623.00 308.50 623.00 293.00
C 622.56 297.56 621.39 304.78 622.00 310.00 C 622.61 315.22 621.41 322.21 622.00 327.00 C 622.59 331.79 620.18 340.32 624.00 340.00 Z"/>
</g>
<g fill="#7C7F7B" fill-opacity="1.00" stroke="None">
<path d="
M 645.00 478.00 
C 644.96 478.00 645.00 477.00 645.00 477.00
C 640.82 477.00 635.42 477.78 632.00 476.00
C 631.71 479.46 640.74 478.00 645.00 478.00 Z"/>
</g>
<g fill="#5A5D59" fill-opacity="1.00" stroke="None">
<path d="
M 645.00 478.00 
C 648.75 478.00 652.92 477.30 656.00 477.00
C 652.33 477.00 648.67 477.00 645.00 477.00
C 645.00 477.00 644.96 478.00 645.00 478.00 Z"/>
</g>
<g fill="#646965" fill-opacity="1.00" stroke="None">
<path d="
M 922.00 523.00 
C 922.54 517.40 922.55 510.67 922.00 505.00
C 922.00 511.00 922.00 517.00 922.00 523.00 Z"/>
</g>
</svg>